<svg width="1134" height="353" fill="none" xmlns="http://www.w3.org/2000/svg"><path d="M21.573 223.958c-1.692 0-4.314-.254-7.867-.762-2.708-2.877-5.161-6.771-7.36-11.68-2.031-5.078-3.639-10.411-4.823-15.997C.508 189.763 0 184.093 0 178.506c.17-5.755 1.184-10.834 3.046-15.235 0-.169.761-2.201 2.284-6.094 1.692-3.893 3.807-8.803 6.345-14.727a1031.07 1031.07 0 0 1 8.63-20.06c3.214-7.449 6.43-14.728 9.644-21.837 3.215-7.11 6.26-13.543 9.137-19.298 3.046-5.925 5.668-10.496 7.868-13.712a103.293 103.293 0 0 0 4.06-6.856c1.354-2.2 2.623-4.232 3.808-6.094 1.861-3.047 3.553-5.84 5.076-8.38 1.692-2.708 3.469-5.078 5.33-7.11 2.03-2.2 4.23-4.062 6.599-5.586 2.369-1.692 5.245-3.131 8.63-4.316 2.03.846 3.806 1.777 5.329 2.793a15.137 15.137 0 0 1 4.06 3.301l.762 3.555c.339 1.185.846 2.031 1.523 2.54.846.338 1.523.507 2.03.507 2.2.508 4.061 1.1 5.584 1.777 1.692.508 3.469.847 5.33 1.016a28.417 28.417 0 0 1 1.777 3.047 39.91 39.91 0 0 0 2.03 2.793c3.384 4.91 6.176 9.65 8.376 14.22 2.199 4.57 2.199 9.564 0 14.981l.254 2.793c.846 1.185 1.269 2.285 1.269 3.301s-.17 2.455-.508 4.317a193.04 193.04 0 0 0-.508 4.57c0 1.524.254 3.217.762 5.079l1.776 2.031c2.708 1.354 5.33 2.032 7.868 2.032 3.385 0 6.43-.762 9.137-2.286a150.212 150.212 0 0 0 7.615-4.57c1.861-1.355 3.553-2.455 5.076-3.301 1.692-.847 3.299-1.44 4.822-1.778 3.553-3.385 6.768-6.348 9.645-8.887a462.043 462.043 0 0 1 9.39-8.125 256.85 256.85 0 0 0 17.767-15.743c5.753-5.756 10.321-12.866 13.705-21.33 1.861-1.185 3.976-1.777 6.345-1.777 2.369 0 4.738.508 7.107 1.523a64.098 64.098 0 0 1 7.106 3.047 12.5 12.5 0 0 0 1.269.762c.508.17 1.016.423 1.523.762 0 1.862.762 3.555 2.284 5.078.846.677 1.439 1.1 1.777 1.27l1.015.508c1.354.846 2.454 1.608 3.3 2.285 1.015.677 1.776 1.608 2.284 2.793 1.523 4.57 4.061 8.126 7.614 10.665a12.492 12.492 0 0 0 .254 5.586 60.517 60.517 0 0 0 1.777 5.079c.338.677.592 1.354.761 2.03.169.509.423 1.186.761 2.032l-5.583-.508.761 5.587c.508 2.877.254 6.094-.761 9.649-.846 3.555-1.862 6.348-3.046 8.379.338 5.078.508 9.141.508 12.188 0 2.878-.17 5.586-.508 8.126a35.947 35.947 0 0 1-1.777 7.363c-.676 2.201-1.607 4.571-2.791 7.11.676 12.865-.846 24.63-4.569 35.295-3.553 10.665-7.445 20.652-11.675 29.963a62.174 62.174 0 0 1-1.523 3.301 23.382 23.382 0 0 0-1.269 3.047c-1.861.508-3.553 1.1-5.076 1.777a34.697 34.697 0 0 0-4.315 2.286 45.49 45.49 0 0 1-5.583 3.047 16.948 16.948 0 0 1-5.838 1.015c-8.122-5.925-12.352-16.166-12.69-30.724-.169-14.558 2.961-33.094 9.391-55.609 1.184-.846 1.692-2.116 1.523-3.809v-2.793l-2.539-.254c-.846 0-1.607.085-2.284.254-.677.17-1.184.931-1.523 2.286-5.414 3.893-11.336 7.956-17.766 12.188a246.24 246.24 0 0 1-19.543 11.426 158.459 158.459 0 0 1-20.812 8.633c-6.937 2.201-13.705 3.301-20.304 3.301-16.92 0-29.695-8.633-38.325-25.899l-2.284-4.571-2.538 4.063c-.508.846-1.438 2.539-2.792 5.078-1.184 2.37-2.453 5.163-3.807 8.38a169.679 169.679 0 0 0-3.3 9.902c-.845 3.386-1.1 6.348-.76 8.888-2.031 1.862-4.062 3.978-6.092 6.348-1.861 2.37-3.215 5.078-4.061 8.125-.339.847-.423 1.693-.254 2.539.17.677.423 1.439.761 2.286-.169 1.185-.507 2.031-1.015 2.539-.507.508-1.1 1.016-1.776 1.523a41.988 41.988 0 0 0-2.538 2.793c-.846.847-1.608 1.863-2.285 3.048a18.86 18.86 0 0 0-.761 3.301 89.254 89.254 0 0 1-.508 2.793c0 1.862-.254 3.131-.761 3.808-1.692 3.555-3.215 6.518-4.569 8.888-1.184 2.2-2.368 3.893-3.553 5.078-1.184 1.185-2.453 1.947-3.807 2.285-1.184.508-2.623.762-4.315.762zM357.357 220.911c-2.707.169-6.091.085-10.152-.254-3.892-.338-7.53.254-10.914 1.778-8.967-.339-18.104-1.439-27.411-3.301-9.306-1.862-17.85-4.148-25.634-6.856a71.934 71.934 0 0 0-5.076-5.079c-1.692-1.692-3.976-2.877-6.853-3.555-4.061-3.216-7.36-7.109-9.898-11.68a77.213 77.213 0 0 1-6.091-14.981 86.12 86.12 0 0 1-3.046-15.997c-.508-5.586-.677-10.919-.508-15.997 2.538-7.618 6.092-14.135 10.66-19.552a673.331 673.331 0 0 1 14.467-16.505c2.2-1.016 3.807-2.031 4.822-3.047 1.185-1.185 2.369-2.201 3.554-3.047a196.894 196.894 0 0 1 3.807-2.793 17.699 17.699 0 0 0 3.553-3.555c3.553-.846 6.599-2.031 9.137-3.555a318.933 318.933 0 0 0 7.868-5.078 77.786 77.786 0 0 1 7.868-5.079c2.707-1.523 5.837-2.708 9.391-3.555a14.292 14.292 0 0 1 4.822-3.555 85.587 85.587 0 0 1 5.584-2.793 83.206 83.206 0 0 0 5.583-3.047c1.862-1.016 3.3-2.37 4.315-4.063.846 1.355 2.03 1.863 3.553 1.524a123.983 123.983 0 0 0 4.315-1.523c.846-.17 1.523 0 2.03.507a16.596 16.596 0 0 1 1.777 1.524c.508.508.931.846 1.269 1.016.508 0 .931-.424 1.269-1.27.846 0 1.1.423.761 1.27-.338.846-.592 1.438-.761 1.777 1.354-.17 2.454.17 3.3 1.016 1.015.677 2.538 1.1 4.568 1.27.677.846.846 1.523.508 2.03-.339.34-.508 1.016-.508 2.032 5.076 1.523 8.291 3.978 9.645 7.364 1.353 3.216 1.438 6.602.253 10.156-1.184 3.555-3.299 6.856-6.345 9.903-3.045 3.047-6.345 5.079-9.898 6.095-8.122 2.2-15.821 4.655-23.096 7.363-7.107 2.539-12.944 6.348-17.513 11.427-4.061 1.185-7.699 2.793-10.913 4.824-3.046 1.862-6.007 4.063-8.884 6.602a110.776 110.776 0 0 0-7.868 7.618 160.789 160.789 0 0 1-7.614 7.617c.169 2.37-.254 4.232-1.269 5.587a74.458 74.458 0 0 0-2.538 3.808c.339 2.54.931 4.825 1.777 6.856a85.782 85.782 0 0 0 2.792 5.587c11.167 3.385 23.011 5.501 35.532 6.348a715.522 715.522 0 0 0 38.071 1.523 36.147 36.147 0 0 0 4.061 4.825 29.12 29.12 0 0 1 4.568 4.57c1.354 1.524 2.454 3.301 3.3 5.333.846 1.862 1.015 4.232.508 7.109a63.564 63.564 0 0 1-7.868 7.11 279.385 279.385 0 0 0-8.63 6.348zM390.352 173.936c.169-.677.254-1.185.254-1.524.169-.338-.085-.762-.762-1.269-.338-1.185-.084-1.947.762-2.286l2.538-1.015c.846-10.157 2.538-19.383 5.076-27.678a465.366 465.366 0 0 1 8.629-24.63 1393.835 1393.835 0 0 0 9.391-23.869c3.215-8.125 5.837-16.928 7.868-26.407 2.2-2.201 3.976-4.825 5.33-7.872a221.607 221.607 0 0 0 4.314-9.141 79.178 79.178 0 0 1 5.077-9.141c2.03-2.878 4.737-5.248 8.121-7.11 1.523.17 2.877.508 4.061 1.016 1.354.338 2.623.762 3.807 1.27 1.185.507 2.454.93 3.807 1.269 1.354.339 2.792.508 4.315.508.677.846 1.269 1.862 1.777 3.047a10.701 10.701 0 0 0 2.03 2.793l4.569-.762c2.199 1.862 4.145 4.232 5.837 7.11a27.39 27.39 0 0 1 3.553 8.633c.677 2.878.593 5.756-.253 8.634-.846 2.708-2.792 4.824-5.838 6.348.169 1.015.169 1.777 0 2.285a6.416 6.416 0 0 1-.761 1.523c-.17.339-.254.762-.254 1.27 0 .339.338.846 1.015 1.523-1.861 1.524-3.553 3.47-5.076 5.84a35.794 35.794 0 0 0-3.807 7.11 67.069 67.069 0 0 0-2.538 7.618c-.508 2.539-.846 4.909-1.015 7.11 4.906-5.079 10.659-9.818 17.258-14.22 6.599-4.401 12.352-8.548 17.259-12.442 3.892-2.708 7.276-5.248 10.152-7.617a107.279 107.279 0 0 1 9.137-6.856c3.046-2.2 6.176-4.232 9.391-6.094a172.24 172.24 0 0 0 10.152-6.602c1.692-.677 2.961-.847 3.807-.508 1.015.338 1.946.762 2.792 1.27.169-1.185-.084-1.863-.761-2.032-.677-.338-.931-1.185-.762-2.54 2.877-.845 5.415-1.861 7.614-3.046a97.042 97.042 0 0 1 7.361-3.301 96.711 96.711 0 0 1 5.076 6.094c1.692 2.031 3.976 3.132 6.853 3.3 1.015 2.202 2.199 3.894 3.553 5.08a95.394 95.394 0 0 1 4.315 3.046 13.62 13.62 0 0 1 3.807 3.81c1.015 1.353 1.607 3.554 1.776 6.601a69.18 69.18 0 0 1-2.538 4.57c-.846 1.524-1.607 3.471-2.284 5.84-4.061 3.725-8.206 7.026-12.436 9.904a230.511 230.511 0 0 1-12.691 7.871c-4.23 2.54-8.629 5.163-13.198 7.872-4.399 2.708-8.883 5.84-13.451 9.395a17.281 17.281 0 0 1-3.807 4.063 119.323 119.323 0 0 1-4.823 3.555 77.18 77.18 0 0 0-4.568 3.301c-1.354 1.185-2.454 2.623-3.3 4.316-.676 0-1.269.085-1.776.254-.508 0-1.1.085-1.777.254-.677 1.354-1.692 2.455-3.045 3.301a6.99 6.99 0 0 0-2.539 3.301c3.046 6.602 7.022 11.596 11.929 14.981 4.907 3.386 10.406 5.84 16.498 7.364 6.091 1.524 12.69 2.37 19.796 2.539 7.107.17 14.467.254 22.081.254.846-.169 1.185-.592 1.016-1.269 0-.847.507-1.185 1.522-1.016 2.539.846 4.654 1.862 6.346 3.047a52.894 52.894 0 0 1 4.822 3.809 51.993 51.993 0 0 1 4.315 4.316 160.105 160.105 0 0 0 5.076 4.317c-.339 7.956-2.708 14.474-7.107 19.552-4.23 4.909-9.898 8.887-17.005 11.934-9.814.339-18.358.085-25.634-.762-7.276-.846-14.467-2.708-21.573-5.586-.508-.169-1.016-.677-1.523-1.523-.339-.847-.677-1.439-1.016-1.778-1.353-.846-2.876-1.185-4.568-1.015-1.692.169-3.13 0-4.315-.508-1.523-.677-4.061-2.201-7.614-4.571-3.384-2.37-6.514-4.57-9.391-6.602a2251.621 2251.621 0 0 0-10.406-8.379 64.666 64.666 0 0 1-8.629-9.395c-.508-.847-1.269-1.27-2.284-1.27-.846 0-1.692-.254-2.538-.762-5.922 3.725-10.914 8.38-14.975 13.966a414.795 414.795 0 0 0-11.421 16.759 186.997 186.997 0 0 1-11.929 15.997c-4.061 4.909-9.221 8.718-15.482 11.426-1.861 0-3.469-.338-4.822-1.015-1.354-.508-2.623-1.27-3.807-2.286l-3.554-2.539c-1.184-.846-2.538-1.439-4.06-1.777 0-2.37-.508-4.571-1.523-6.602-.846-2.201-1.777-4.148-2.792-5.841-.846-1.862-1.523-3.639-2.031-5.332-.338-1.693.17-3.385 1.523-5.078-1.861-1.524-3.638-2.793-5.33-3.809 1.185-1.185 1.692-2.285 1.523-3.301 0-1.016-.254-2.031-.761-3.047a23.165 23.165 0 0 1-1.269-3.047c-.169-1.185.169-2.455 1.015-3.809.677-.169.931-.508.761-1.016 0-.507.254-.931.762-1.269zM668.268 153.876c-1.184 1.016-2.2 2.285-3.046 3.809a97.517 97.517 0 0 0-2.538 4.316 52.877 52.877 0 0 1-2.791 5.333 19.56 19.56 0 0 1-3.808 4.57c-.846 2.54-1.692 4.571-2.538 6.094-.846 1.355-2.199 2.963-4.06 4.825-1.692 6.771-5.669 14.135-11.929 22.091-.169 1.524-.677 3.047-1.523 4.571a49.16 49.16 0 0 1-2.284 4.062 16.639 16.639 0 0 0-1.016 1.778c-.338.508-.592.931-.761 1.269l-.508 2.54c-.846 1.354-1.776 2.539-2.791 3.555a3560.72 3560.72 0 0 0-2.792 2.793c-.339.508-.931 1.185-1.777 2.031l-3.807 1.524c-12.352-1.693-19.881-8.295-22.589-19.806l.254-2.539c.339-.847.592-1.693.762-2.54l1.015-3.047a115.56 115.56 0 0 1 2.284-7.11 20.14 20.14 0 0 1 4.315-6.348c.338-1.184 1.1-3.047 2.284-5.586 1.184-2.708 3.215-6.686 6.091-11.934 2.369-4.063 4.23-7.279 5.584-9.649 1.354-2.37 2.453-4.232 3.299-5.586a36.166 36.166 0 0 0-6.091-7.364c-2.199-4.232-4.145-8.295-5.837-12.188-1.523-3.894-2.708-7.364-3.554-10.411-.169-2.201-.423-4.063-.761-5.586a232.79 232.79 0 0 1-1.015-4.825 66.01 66.01 0 0 1-1.269-5.586 32.563 32.563 0 0 1-.508-5.84c-.846-1.185-1.354-2.37-1.523-3.555l.508-2.54c.508-1.184.592-2.708.254-4.57a78.55 78.55 0 0 0-1.269-6.094 122.892 122.892 0 0 0-1.269-5.586 24.527 24.527 0 0 1-.254-6.094c.169-2.032.677-3.894 1.523-5.587 1.015-1.862 2.622-3.47 4.822-4.824l4.315-.254a97.405 97.405 0 0 1 4.314 2.54 34.8 34.8 0 0 1 4.315 2.284c1.861.847 3.638 1.693 5.33 2.54 1.692.846 3.469 1.947 5.33 3.3l1.776 3.556 3.3 2.793v2.793c.169.677.254 1.608.254 2.793 0 2.2.338 3.555 1.015 4.063l1.015 3.047c0 2.37.254 4.655.762 6.856a284.746 284.746 0 0 0 1.522 5.84 278.281 278.281 0 0 1 1.523 5.84c.508 2.031.592 4.232.254 6.602 1.015-.508 1.861-1.1 2.538-1.778a3.979 3.979 0 0 1 1.015-.761c.339-.17.677-.423 1.016-.762l14.974-20.314-.508-2.539 5.33-5.078 3.807-3.81c1.354-1.184 2.454-2.454 3.3-3.808l2.792-2.031c5.414-8.464 13.113-13.712 23.096-15.743l3.553-.508 1.015 3.3c.677 1.863 2.031 3.556 4.061 5.08a93.756 93.756 0 0 0 6.853 4.316l2.284 1.523c.846 1.693 1.269 2.963 1.269 3.81 0 .846-.084 1.607-.254 2.284l1.016 2.54c-1.354 4.062-3.046 7.025-5.076 8.887a76.067 76.067 0 0 1-5.584 5.078 734.597 734.597 0 0 1-4.315 3.809c-1.184 1.016-2.115 2.37-2.792 4.063l-1.776 2.031c-3.554 2.032-5.838 4.74-6.853 8.126l-.761 3.047h-3.046c-.169 0-.592.338-1.269 1.015-.508.508-1.354 1.947-2.538 4.317-1.185 1.693-2.031 2.793-2.538 3.301l-1.269 1.27a9.88 9.88 0 0 1-.762 2.031 38.875 38.875 0 0 1-.761 2.031c-2.2 2.201-3.553 3.894-4.061 5.079l-1.777 3.555-2.03 4.062c-.508 1.185-1.438 2.455-2.792 3.809l-1.269 3.809zM758.115 217.61c-4.738 1.524-9.898 3.047-15.482 4.571-5.584 1.523-11.167 2.285-16.751 2.285-8.46 0-15.144-2.116-20.051-6.348-.846-1.862-1.607-3.132-2.284-3.809l-1.523-2.031c-.338-.847-.592-1.947-.761-3.301-2.031-2.37-3.638-5.079-4.823-8.126a50.85 50.85 0 0 1-2.538-9.649 67.838 67.838 0 0 1-.253-10.156c.338-3.386.93-6.602 1.776-9.649.339-.678.508-1.355.508-2.032a49.75 49.75 0 0 0 .507-2.285 521.707 521.707 0 0 1 2.031-7.872c.846-2.539 1.946-4.74 3.299-6.602-.676-1.523-.676-3.216 0-5.078.677-1.862 1.439-3.555 2.285-5.078 2.368-6.433 4.314-11.85 5.837-16.251a1149.4 1149.4 0 0 1 5.076-13.458 734.738 734.738 0 0 0 8.122-22.6c2.538-7.448 4.822-15.488 6.853-24.122 1.353-.846 2.369-1.439 3.045-1.777a35.945 35.945 0 0 1 2.538-.762c3.046 1.524 6.599 3.047 10.66 4.57 4.061 1.355 7.445 2.032 10.152 2.032 1.354.847 2.2 1.524 2.538 2.032l1.016 1.015a45.817 45.817 0 0 1 4.822 6.856c1.354 2.2 1.777 5.163 1.269 8.887-1.015 1.524-1.777 2.286-2.284 2.286-.846 3.385-1.777 6.263-2.792 8.633-.846 2.37-1.777 4.74-2.792 7.11a148.124 148.124 0 0 0-3.299 7.617c-1.016 2.539-1.862 5.671-2.538 9.395-.677.847-1.185 1.609-1.523 2.286-.17.677-.423 1.439-.762 2.285a37.05 37.05 0 0 1-1.269 2.793c-.338.846-.93 1.608-1.776 2.285-.508 4.402-1.354 7.957-2.538 10.665a163.746 163.746 0 0 1-3.3 8.125 262.01 262.01 0 0 0-5.584 14.728c-1.522 4.909-2.453 10.495-2.791 16.759.846-.339 1.607-.508 2.284-.508h2.284c1.523 0 3.3.254 5.33.762 5.076-2.709 10.575-4.317 16.497-4.825a331.197 331.197 0 0 1 18.02-1.016h7.107c2.369 0 4.568-.169 6.599-.507 1.523.846 2.453 1.354 2.792 1.523h2.03c1.185 0 2.2.085 3.046.254 2.03 1.862 3.976 3.216 5.837 4.063a59.864 59.864 0 0 0 5.838 2.285 50.55 50.55 0 0 1 5.33 2.285c1.861.677 3.638 1.693 5.33 3.047l1.776 10.919c1.185 1.523 1.692 2.539 1.523 3.047 0 1.354-.338 2.37-1.015 3.047l.507 2.793c-2.538.508-4.314 1.101-5.329 1.778a30.957 30.957 0 0 0-2.538 2.285c-1.354.169-2.369.254-3.046.254h-1.523c-2.369 0-5.245.423-8.629 1.269-4.569-1.523-9.306-2.285-14.213-2.285-1.862 0-3.807.085-5.838.254l-6.091.508a72.876 72.876 0 0 1-6.345.762 76.556 76.556 0 0 1-6.345.254l-5.838 1.523z" fill="#fff"/><path d="M963.951 199.074c-1.015 2.878-2.538 5.84-4.569 8.887-1.861 2.878-4.145 5.502-6.852 7.872-2.539 2.2-5.415 4.062-8.63 5.586a26.419 26.419 0 0 1-10.152 2.539c-2.2-.508-3.722-1.1-4.569-1.777a26.612 26.612 0 0 0-2.284-1.524 6.437 6.437 0 0 0-1.523-.762 3.962 3.962 0 0 0-1.015-.761l-3.045-1.27 1.015-3.301c.338-1.354.254-2.37-.254-3.047-.508-.846-1.523-1.947-3.046-3.301l-1.523-1.523a10.162 10.162 0 0 1-1.269-1.524l-4.314-4.824 6.852-1.778c4.231-1.185 7.022-2.708 8.376-4.571 1.523-1.862 2.115-4.993 1.777-9.395-3.384-.677-6.261-.761-8.63-.254a137.85 137.85 0 0 0-6.852 1.778 152.536 152.536 0 0 1-9.391 2.285c-3.046.508-6.43.762-10.152.762h-3.807a219.915 219.915 0 0 0-3.808-.508l-2.538-.508c-.338-1.862-.676-2.877-1.015-3.047l-1.015-1.015c-.846-.847-1.777-1.947-2.792-3.301-.846-1.524-1.015-3.386-.507-5.587-.846-1.523-1.354-3.047-1.523-4.57a28.431 28.431 0 0 0-2.285 6.348l-1.015 2.539-2.538.508c-.338.169-.592.592-.761 1.269-.169.508-.254.931-.254 1.27l-1.269 4.317-1.015 1.015a3.99 3.99 0 0 0-1.015.762 46.102 46.102 0 0 1-1.27 4.571 124.142 124.142 0 0 1-1.522 4.316 102.106 102.106 0 0 0-2.285 6.602 18.63 18.63 0 0 0-.507 6.094l-1.015 2.794a13.113 13.113 0 0 1-2.792 2.539l-3.046 1.523c-.338.339-.846.677-1.523 1.016-.507.169-.93.339-1.269.508l-.761 2.793-3.046.508c-1.861.338-3.215.592-4.061.762-.677.169-1.523.253-2.538.253l-2.538-.253a727.265 727.265 0 0 1-4.315-3.555c-1.015-1.016-2.199-1.947-3.553-2.793-1.523-2.032-2.369-3.555-2.538-4.571a88.294 88.294 0 0 0-.507-2.793c-.339-1.016-.508-1.862-.508-2.539-.169-.678-.423-1.185-.761-1.524l-3.3-3.047 2.792-2.285.254-4.317a422.521 422.521 0 0 1 10.66-24.884c3.891-7.956 7.867-16.082 11.928-24.377a174.353 174.353 0 0 0 3.807-8.125l4.061-8.125c-.169-.508-.253-1.101-.253-1.778s.169-1.439.507-2.285c1.861-2.878 3.384-5.417 4.569-7.618l3.553-7.11a387.314 387.314 0 0 1 4.061-8.379c1.523-2.709 3.384-5.502 5.583-8.38l4.061-1.777c.508-.17 1.1-.338 1.777-.508.677-.338 1.438-.507 2.284-.507l3.807.507c4.738-2.2 8.883-5.247 12.437-9.14 3.553-4.064 7.191-8.888 10.913-14.474l2.538-3.555 3.3 2.031c.846.508 2.03 1.016 3.553 1.524 1.523.338 3.13.761 4.822 1.27 3.046.676 5.923 1.438 8.63 2.285 2.707.846 4.907 2.116 6.599 3.808 1.015 2.709 1.607 4.74 1.776 6.094.17 1.355.423 2.709.762 4.063.507 2.878.93 5.756 1.269 8.633.507 2.878.846 6.095 1.015 9.65a79.448 79.448 0 0 1 2.03 8.633 121.936 121.936 0 0 1 1.777 8.379 1403.04 1403.04 0 0 0 2.538 11.934 71.018 71.018 0 0 0 3.3 10.665c1.353 0 2.199.085 2.538.254a14.575 14.575 0 0 1 2.538-.762c1.015-.169 2.115-.338 3.299-.508l2.792-.253 1.015 2.539c.169.846 1.015 1.693 2.538 2.539 2.2.169 3.807.677 4.823 1.524a18.221 18.221 0 0 1 2.791 2.285c.677.677 1.354 1.185 2.031 1.523l3.807 1.524-2.031 3.809c-1.692 3.047-4.145 6.009-7.36 8.887-3.046 2.708-6.514 4.994-10.406 6.856.169 1.015.254 2.031.254 3.047.169.846.423 1.777.761 2.793.508 2.878.931 5.84 1.269 8.887.339 3.047.339 6.179 0 9.395l-.507 1.016zm-73.35-43.928c5.076-.339 9.645-.678 13.706-1.016 4.23-.508 8.883-1.27 13.959-2.285a1042.62 1042.62 0 0 0-3.807-15.743 469.806 469.806 0 0 0-4.315-16.505l-1.523 2.539c-3.384 3.555-6.683 7.533-9.898 11.934-3.046 4.401-5.668 8.549-7.868 12.442l-3.046 4.571a66.307 66.307 0 0 0-2.792 4.57 17.113 17.113 0 0 1 2.792-.253c1.016 0 1.946-.085 2.792-.254zm96.192-134.578l.254 2.793a198.106 198.106 0 0 1-3.046 5.078 18.69 18.69 0 0 0-1.522 4.317c-1.862 1.862-3.3 3.047-4.315 3.555a50.773 50.773 0 0 0-2.792 1.015c-1.861.678-3.13 1.355-3.807 2.032l-2.538 3.809-2.538-2.286-3.807 3.555a551.52 551.52 0 0 0-4.061-3.3c-.846-.847-1.692-1.524-2.538-2.032-.677-.508-1.692-1.016-3.046-1.524-1.184-.677-3.13-1.608-5.837-2.793l-3.554-1.27 1.016-3.3c.338-.847.423-2.37.253-4.571 0-2.2.085-4.063.254-5.586.169-2.709.169-5.248 0-7.618s.254-4.486 1.269-6.348c3.553-1.862 6.345-3.132 8.376-3.809 1.692.17 3.299.339 4.822.508l4.569.508c1.184.17 1.945.339 2.284.508H967.758c.338-.17 1.015-.423 2.03-.762l3.046.508c1.184.508 2.115 1.27 2.792 2.285l2.538 2.54c.677 1.354 1.353 2.2 2.03 2.539l3.046.253 1.015 3.048c.846 1.692 1.354 2.962 1.523 3.808.338.678.677 1.524 1.015 2.54zm-75.887-9.903a86.89 86.89 0 0 0 5.583 5.586c1.861 1.693 2.961 3.555 3.3 5.586-.677 2.709-1.269 4.57-1.777 5.586a42.483 42.483 0 0 1-1.269 3.301c-2.2 1.863-4.738 3.81-7.614 5.84-1.015.847-1.692 1.355-2.031 1.524-.338.17-.592.339-.761.508l-.254.508c0 .17-.254.762-.761 1.777l-2.538 1.778c-1.354.508-2.623.761-3.807.761l-3.554-.507h-2.03c-.677-.17-1.184-.254-1.523-.254l-2.03 2.031-3.046-1.27c-1.861-.846-3.215-1.354-4.061-1.523-.677-.339-1.438-.846-2.284-1.524l-2.284-1.523c-.677-2.54-1.269-4.486-1.777-5.84a18.646 18.646 0 0 0-1.523-4.317c0-2.878.169-4.824.508-5.84a50.845 50.845 0 0 1 1.015-2.793c1.015-1.862 1.438-3.217 1.269-4.063l-1.015-4.57 3.807-.255V5.84c2.369-.17 4.145-.254 5.33-.254 1.184 0 2.284-.084 3.299-.254a42.752 42.752 0 0 0 3.3-1.27c1.353-.507 3.468-1.354 6.345-2.538L902.276 0l1.523 3.301c.338.677 1.269 1.777 2.792 3.3a115.19 115.19 0 0 1 4.315 4.064zM1032.73 174.19c-1.52.338-2.62 1.269-3.3 2.793-.67 1.354-1.35 2.793-2.03 4.316a34.175 34.175 0 0 1-1.77 4.317c-.51 1.185-1.36 1.778-2.54 1.778-.17 1.354-.68 2.539-1.53 3.554a62.528 62.528 0 0 0-2.03 3.301c-.67 1.016-1.18 2.201-1.52 3.555-.34 1.185-.17 2.624.51 4.317-1.35 1.016-2.2 2.455-2.54 4.317a48.987 48.987 0 0 1-1.27 5.332c-.34 1.693-1.01 3.132-2.03 4.317-1.01 1.185-2.88 1.692-5.58 1.523-.51.677-.59 1.1-.26 1.27.34.169.6.761.77 1.777-1.87-.338-3.3-.254-4.32.254-.85.677-1.95 1.1-3.299 1.27-3.215-1.016-5.922-2.793-8.122-5.333-2.03-2.539-3.891-5.332-5.583-8.379a241.414 241.414 0 0 1-4.315-9.649c-1.185-3.216-2.369-6.009-3.553-8.379.507-1.862.592-3.64.253-5.333-.338-1.862-.93-3.385-1.776-4.57 8.291-17.605 17.343-36.396 27.155-56.371a2021.275 2021.275 0 0 0 27.92-59.163 99.605 99.605 0 0 1 11.42 5.332c3.89 1.862 7.36 4.063 10.41 6.602a36.937 36.937 0 0 1 8.12 8.887c2.2 3.217 3.64 6.856 4.31 10.919-.33 1.016-.76 1.439-1.26 1.27-.34-.34-.68-.254-1.02.253.68.847 1.02 1.44 1.02 1.778.16.338.16.677 0 1.015v1.524c0 .508.25 1.27.76 2.285-.68-.169-1.19-.084-1.53.254-.17.339-.67.339-1.52 0 .68 1.862.85 3.386.51 4.571a10.686 10.686 0 0 1-1.02 3.301c-.5.846-.93 1.862-1.27 3.047-.33 1.015-.25 2.37.26 4.063-.51 0-.93.169-1.27.507-.17.17-.34.424-.51.762-.17.169-.42.423-.76.762-.17.169-.51.169-1.02 0 .51 3.724.68 7.448.51 11.172-.17 3.725-.34 7.533-.51 11.427 0 3.724.09 7.702.26 11.934.17 4.063.76 8.295 1.78 12.696 6.09-3.555 10.91-8.125 14.46-13.712 3.72-5.586 6.69-11.849 8.89-18.79 2.36-6.94 4.14-14.389 5.33-22.345 1.18-7.956 2.45-16.081 3.8-24.376 1.53-1.524 2.71-3.386 3.56-5.586.84-2.201 1.6-4.486 2.28-6.856.68-2.54 1.35-4.994 2.03-7.364.68-2.54 1.52-4.824 2.54-6.856 2.54.339 4.65 1.185 6.34 2.54a29.674 29.674 0 0 1 5.08 4.062c1.52 1.354 3.13 2.709 4.82 4.063 1.69 1.185 3.81 1.947 6.35 2.285 2.03 2.878 3.89 5.671 5.58 8.38 1.69 2.708 2.79 5.586 3.3 8.633-.85 1.354-1.52 2.878-2.03 4.57a55.435 55.435 0 0 1-1.27 5.079 24.142 24.142 0 0 1-2.03 4.824c-.85 1.355-2.03 2.54-3.55 3.555-.51 4.402-1.19 8.464-2.03 12.188-.68 3.555-1.44 7.11-2.29 10.665a193.02 193.02 0 0 0-1.77 11.173c-.51 3.724-.68 7.871-.51 12.442-1.36 3.893-2.79 8.041-4.32 12.442-1.52 4.401-2.7 8.379-3.55 11.934-2.71 2.201-4.82 4.825-6.35 7.872a236.74 236.74 0 0 1-4.82 9.141c-.67.677-1.1.846-1.27.508-.17-.339-.76-.593-1.77-.762.17.677.17 1.185 0 1.523-.17.339-.43.678-.76 1.016-.17.169-.34.508-.51 1.016 0 .508.17 1.185.51 2.031a20.11 20.11 0 0 0-6.35 4.317 43.925 43.925 0 0 1-6.09 5.078c-2.03 1.524-4.57 2.539-7.62 3.047-2.87.508-6.68-.084-11.42-1.777a101.13 101.13 0 0 1-18.52-17.521c-5.25-6.602-9.56-14.473-12.95-23.614zM221.18 323.943c0-1.17.422-2.372 1.267-3.607.845-1.3 1.819-1.95 2.924-1.95.715 0 1.592.357 2.631 1.072 1.105.715 2.534 1.463 4.289 2.243 1.754.715 3.833 1.072 6.237 1.072 4.743 0 7.115-1.397 7.115-4.192 0-1.561-.812-2.796-2.437-3.706-1.559-.91-3.476-1.657-5.75-2.242a98.302 98.302 0 0 1-6.725-2.048c-2.274-.845-4.223-2.21-5.847-4.095-1.56-1.95-2.34-4.42-2.34-7.411 0-3.965 1.397-7.378 4.191-10.238 2.794-2.86 7.212-4.29 13.255-4.29 4.028 0 7.602.618 10.721 1.853 3.183 1.235 4.775 2.73 4.775 4.485 0 1.105-.455 2.405-1.364 3.9-.845 1.43-1.917 2.145-3.216 2.145-.52 0-1.95-.455-4.289-1.365-2.274-.975-4.418-1.462-6.432-1.462-2.209 0-3.899.455-5.068 1.365-1.17.91-1.754 1.917-1.754 3.022 0 1.105.584 2.015 1.754 2.731 1.169.715 2.599 1.267 4.288 1.657 1.755.39 3.639.943 5.653 1.658 2.014.65 3.866 1.43 5.555 2.34 1.755.91 3.216 2.34 4.386 4.29 1.17 1.885 1.754 4.193 1.754 6.923 0 4.42-1.592 7.898-4.775 10.433-3.119 2.535-7.505 3.803-13.158 3.803-4.873 0-9.031-.845-12.475-2.535-3.443-1.69-5.165-3.641-5.165-5.851zM283.171 312.535v-23.401c0-.975.618-1.885 1.852-2.73 1.3-.845 2.794-1.268 4.483-1.268 1.625 0 3.054.423 4.289 1.268 1.299.845 1.949 1.755 1.949 2.73v23.401c0 2.275.844 4.323 2.534 6.143 1.689 1.755 3.703 2.633 6.042 2.633s4.321-.878 5.945-2.633c1.69-1.82 2.534-3.868 2.534-6.143v-23.499c0-1.04.618-1.95 1.852-2.73 1.3-.78 2.794-1.17 4.483-1.17 1.82 0 3.314.39 4.484 1.17 1.169.78 1.754 1.69 1.754 2.73v23.499c0 5.265-2.079 9.881-6.238 13.846-4.158 3.965-9.096 5.948-14.814 5.948-5.717 0-10.688-1.983-14.911-5.948-4.159-3.965-6.238-8.581-6.238-13.846zM354.358 349.002v-59.966c0-1.17.553-2.112 1.657-2.827 1.17-.715 2.599-1.073 4.288-1.073 1.69 0 3.087.358 4.191 1.073 1.105.715 1.657 1.657 1.657 2.827v2.926c1.235-2.081 2.989-3.836 5.263-5.266 2.339-1.43 4.97-2.145 7.894-2.145 4.873 0 8.999 1.95 12.378 5.85 3.378 3.836 5.068 8.483 5.068 13.944v7.995c0 5.265-1.722 9.913-5.166 13.943-3.443 4.031-7.407 6.046-11.89 6.046-2.794 0-5.393-.748-7.797-2.243-2.339-1.56-3.996-3.38-4.97-5.46v24.376c0 1.04-.65 1.95-1.95 2.73-1.234.846-2.728 1.268-4.483 1.268-1.754 0-3.216-.422-4.385-1.268-1.17-.78-1.755-1.69-1.755-2.73zm12.573-34.907c0 1.3.877 2.828 2.631 4.583 1.754 1.755 3.736 2.633 5.945 2.633 2.274 0 4.289-.91 6.043-2.73 1.754-1.886 2.631-3.966 2.631-6.241v-7.995c0-2.275-.877-4.291-2.631-6.046-1.754-1.82-3.834-2.73-6.238-2.73-2.209 0-4.158.813-5.847 2.438-1.69 1.625-2.534 3.738-2.534 6.338v9.75zM422.538 312.34v-8.288c0-5.33 2.079-9.913 6.237-13.748 4.158-3.835 9.194-5.753 15.107-5.753 5.522 0 10.233 1.755 14.131 5.265 3.964 3.446 5.946 7.801 5.946 13.066 0 1.95-.26 3.575-.78 4.875-.455 1.235-1.202 2.113-2.242 2.633-.974.52-1.884.845-2.729.975-.844.13-1.949.195-3.313.195H435.11v1.463c0 2.795 1.04 5.07 3.119 6.825 2.079 1.69 4.84 2.535 8.284 2.535 2.469 0 4.906-.617 7.31-1.852s3.963-1.853 4.678-1.853c1.364 0 2.501.65 3.411 1.95.91 1.235 1.364 2.438 1.364 3.608 0 1.82-1.657 3.64-4.97 5.46-3.249 1.755-7.31 2.633-12.183 2.633-6.952 0-12.637-1.82-17.056-5.46-4.353-3.706-6.529-8.548-6.529-14.529zm12.572-8.19h14.229c1.04 0 1.755-.163 2.145-.488.454-.39.682-1.105.682-2.145 0-2.275-.845-4.128-2.534-5.558-1.625-1.43-3.639-2.145-6.043-2.145-2.274 0-4.256.715-5.945 2.145-1.689 1.365-2.534 3.185-2.534 5.461v2.73zM490.992 327.454v-38.418c0-1.17.552-2.112 1.657-2.827 1.169-.715 2.664-1.073 4.483-1.073 1.624 0 2.956.358 3.996 1.073 1.104.715 1.657 1.657 1.657 2.827v3.998c1.039-2.275 2.664-4.258 4.873-5.948 2.209-1.69 4.58-2.535 7.114-2.535h3.022c1.169 0 2.209.553 3.118 1.658.975 1.105 1.462 2.372 1.462 3.802 0 1.495-.487 2.796-1.462 3.901-.909 1.105-1.949 1.657-3.118 1.657h-3.022c-2.989 0-5.62 1.333-7.894 3.998-2.209 2.665-3.314 6.143-3.314 10.433v17.454c0 .975-.649 1.885-1.949 2.73-1.299.845-2.794 1.267-4.483 1.267-1.754 0-3.216-.39-4.386-1.17-1.169-.845-1.754-1.787-1.754-2.827zM544.493 319.361c0-5.266 1.95-8.971 5.848-11.116 3.898-2.145 9.519-3.218 16.861-3.218h3.996v-1.267c0-2.405-.715-4.486-2.144-6.241-1.365-1.82-3.509-2.73-6.433-2.73s-5.425.52-7.504 1.56c-2.08.975-3.282 1.463-3.606 1.463-1.3 0-2.34-.65-3.119-1.95-.78-1.3-1.17-2.73-1.17-4.291 0-1.885 1.657-3.51 4.971-4.875a26.976 26.976 0 0 1 10.623-2.145c7.082 0 12.345 1.82 15.789 5.46 3.443 3.576 5.165 8.093 5.165 13.554v23.889c0 1.105-.585 2.047-1.754 2.827-1.17.78-2.632 1.17-4.386 1.17-1.624 0-2.989-.39-4.093-1.17-1.04-.78-1.56-1.722-1.56-2.827v-2.828c-4.483 5.135-9.421 7.703-14.814 7.703-3.703 0-6.757-1.105-9.161-3.315-2.339-2.21-3.509-5.428-3.509-9.653zm12.573-1.658c0 1.755.455 3.088 1.364 3.998.975.845 2.242 1.267 3.801 1.267 2.079 0 4.094-.975 6.043-2.925 1.949-1.95 2.924-4.095 2.924-6.435v-2.048h-1.462c-3.964 0-7.082.423-9.356 1.268-2.21.78-3.314 2.405-3.314 4.875zM612.59 327.454v-38.418c0-1.17.552-2.112 1.657-2.827 1.169-.715 2.663-1.073 4.483-1.073 1.624 0 2.956.358 3.996 1.073 1.104.715 1.657 1.657 1.657 2.827v3.998c1.039-2.275 2.663-4.258 4.873-5.948 2.209-1.69 4.58-2.535 7.114-2.535h3.022c1.169 0 2.209.553 3.118 1.658.975 1.105 1.462 2.372 1.462 3.802 0 1.495-.487 2.796-1.462 3.901-.909 1.105-1.949 1.657-3.118 1.657h-3.022c-2.989 0-5.62 1.333-7.894 3.998-2.209 2.665-3.314 6.143-3.314 10.433v17.454c0 .975-.65 1.885-1.949 2.73-1.3.845-2.794 1.267-4.483 1.267-1.755 0-3.216-.39-4.386-1.17-1.17-.845-1.754-1.787-1.754-2.827zM666.309 312.34v-7.8c0-5.981 1.754-10.791 5.263-14.431 3.509-3.705 8.771-5.558 15.789-5.558 4.418 0 8.121.78 11.11 2.34 2.989 1.56 4.483 3.315 4.483 5.266 0 1.365-.487 2.73-1.462 4.095-.974 1.365-2.144 2.047-3.508 2.047-.39 0-1.559-.455-3.509-1.365-1.884-.91-3.931-1.365-6.14-1.365-6.302 0-9.454 2.99-9.454 8.971v7.8c0 5.981 3.184 8.971 9.552 8.971 2.209 0 4.255-.488 6.14-1.463 1.884-.975 3.086-1.462 3.606-1.462 1.559 0 2.826.65 3.801 1.95 1.039 1.3 1.559 2.632 1.559 3.997 0 2.015-1.592 3.868-4.775 5.558-3.119 1.625-6.888 2.438-11.306 2.438-7.082 0-12.377-1.82-15.886-5.46-3.509-3.641-5.263-8.483-5.263-14.529zM726.89 319.361c0-5.266 1.949-8.971 5.848-11.116 3.898-2.145 9.519-3.218 16.861-3.218h3.996v-1.267c0-2.405-.715-4.486-2.145-6.241-1.364-1.82-3.508-2.73-6.432-2.73-2.924 0-5.425.52-7.505 1.56-2.079.975-3.281 1.463-3.606 1.463-1.299 0-2.339-.65-3.118-1.95-.78-1.3-1.17-2.73-1.17-4.291 0-1.885 1.657-3.51 4.971-4.875a26.976 26.976 0 0 1 10.623-2.145c7.082 0 12.345 1.82 15.789 5.46 3.443 3.576 5.165 8.093 5.165 13.554v23.889c0 1.105-.585 2.047-1.754 2.827-1.17.78-2.632 1.17-4.386 1.17-1.624 0-2.989-.39-4.093-1.17-1.04-.78-1.56-1.722-1.56-2.827v-2.828c-4.483 5.135-9.421 7.703-14.814 7.703-3.703 0-6.757-1.105-9.161-3.315-2.339-2.21-3.509-5.428-3.509-9.653zm12.573-1.658c0 1.755.455 3.088 1.364 3.998.975.845 2.242 1.267 3.801 1.267 2.079 0 4.093-.975 6.043-2.925 1.949-1.95 2.924-4.095 2.924-6.435v-2.048h-1.462c-3.964 0-7.083.423-9.357 1.268-2.209.78-3.313 2.405-3.313 4.875zM793.33 312.34v-7.995c0-5.396 1.689-10.043 5.068-13.944 3.443-3.9 7.537-5.85 12.28-5.85 2.859 0 5.36.715 7.504 2.145 2.209 1.43 3.899 3.185 5.068 5.266v-29.935c0-1.17.585-2.112 1.755-2.827 1.234-.715 2.761-1.073 4.58-1.073s3.314.358 4.483 1.073c1.17.715 1.755 1.657 1.755 2.827v65.427c0 1.04-.618 1.982-1.852 2.827-1.17.78-2.632 1.17-4.386 1.17-1.494 0-2.826-.422-3.996-1.267-1.104-.845-1.657-1.755-1.657-2.73v-2.828c-1.039 2.08-2.826 3.9-5.36 5.46-2.469 1.495-5.198 2.243-8.187 2.243-4.483 0-8.446-2.015-11.89-6.046-3.444-4.03-5.165-8.678-5.165-13.943zm12.572 0c0 2.275.845 4.355 2.534 6.241 1.689 1.82 3.671 2.73 5.945 2.73 2.274 0 4.321-.878 6.14-2.633 1.82-1.82 2.729-3.348 2.729-4.583v-9.75c0-2.6-.909-4.713-2.729-6.338-1.754-1.625-3.768-2.438-6.042-2.438-2.339 0-4.354.91-6.043 2.73-1.689 1.755-2.534 3.771-2.534 6.046v7.995zM863.359 312.34v-8.288c0-5.33 2.079-9.913 6.237-13.748 4.158-3.835 9.194-5.753 15.107-5.753 5.522 0 10.233 1.755 14.131 5.265 3.964 3.446 5.945 7.801 5.945 13.066 0 1.95-.259 3.575-.779 4.875-.455 1.235-1.202 2.113-2.242 2.633-.974.52-1.884.845-2.729.975-.844.13-1.949.195-3.313.195h-19.785v1.463c0 2.795 1.04 5.07 3.119 6.825 2.079 1.69 4.84 2.535 8.284 2.535 2.469 0 4.905-.617 7.31-1.852 2.404-1.235 3.963-1.853 4.678-1.853 1.364 0 2.501.65 3.411 1.95.909 1.235 1.364 2.438 1.364 3.608 0 1.82-1.657 3.64-4.97 5.46-3.249 1.755-7.31 2.633-12.183 2.633-6.952 0-12.637-1.82-17.056-5.46-4.353-3.706-6.529-8.548-6.529-14.529zm12.572-8.19h14.229c1.04 0 1.755-.163 2.144-.488.455-.39.683-1.105.683-2.145 0-2.275-.845-4.128-2.534-5.558-1.625-1.43-3.639-2.145-6.043-2.145-2.274 0-4.256.715-5.945 2.145-1.689 1.365-2.534 3.185-2.534 5.461v2.73z" fill="#fff"/></svg>